# xmcd CD database file
#
# Track frame offsets:
#	150
#	14697
#	31389
#	50484
#	74437
#	99990
#	119213
#	144419
#	162116
#
# Disc length: 2694 seconds
#
# Revision: 0
# Processed by: cddbd v1.5.2PL0 Copyright (c) Steve Scherf et al.
# Submitted via: CDex 1.70beta2
#
DISCID=7e0a8409
DTITLE=Jule Brown - Soldier In The 9th
DYEAR=2007
DGENRE=Blues
TTITLE0=Give What You Have
TTITLE1=Stop What You're Doin'
TTITLE2=Soldier In The 9th
TTITLE3=Do U Feel Alright?
TTITLE4=On The Run
TTITLE5=Those Were The Days
TTITLE6=Lemon Lite
TTITLE7=She Blows My Mind
TTITLE8=Clear Tone Blues
EXTD=YEAR: 2007
EXTT0=
EXTT1=
EXTT2=
EXTT3=
EXTT4=
EXTT5=
EXTT6=
EXTT7=
EXTT8=
PLAYORDER=
